<?xml version="1.0" encoding="UTF-8"?>
<svg id="Layer_2" data-name="Layer 2" xmlns="http://www.w3.org/2000/svg" xmlns:xlink="http://www.w3.org/1999/xlink" viewBox="0 0 957.52 176.72">
  <defs>
    <style>
      .cls-1 {
        fill: url(#linear-gradient);
      }

      .cls-2 {
        fill: #f5fcff;
      }
    </style>
    <linearGradient id="linear-gradient" x1="520.06" y1="88.55" x2="939.52" y2="88.55" gradientUnits="userSpaceOnUse">
      <stop offset="0" stop-color="#006aff"/>
      <stop offset="1" stop-color="#00a9ff"/>
    </linearGradient>
  </defs>
  <g id="Layer_1-2" data-name="Layer 1">
    <g>
      <path class="cls-1" d="M849.39,42.96c-3.86-8.73-12.79-13.71-21.06-13.71h-82.46c-22.6-1.16-45.25,6.89-59.56,24.74-14.39-20.52-37.4-26.42-61.42-24.61h.01c-43.73,1.88-65.47,45.39-51.69,79.11h-10.1c-3.99,0-7.22-3.23-7.22-7.22V2.12c0-.97-.78-1.75-1.75-1.75h-32.34c-.97,0-1.75.78-1.75,1.75v108.11s0,0,0,.01v11.33c0,12.57,10.19,22.76,22.76,22.76h90.22s0-.04,0-.08c21-.03,40.56-6.73,53.28-24.92,14.75,18.41,38.37,26.41,61.66,24.62h-.01c9.39-.33,18.71-3,26.74-7.57,0-.01.01,0,.01,0,18.19-10.14,30.04-30.53,29.19-51.43-.14-6.86-1.64-13.59-4.26-19.86h10.54c3.84,0,6.96,3.12,6.96,6.96v98.6c0,3.35,2.72,6.07,6.07,6.07h21.94c3.35,0,6.07-2.72,6.07-6.07v-33.49c0-.68.73-1.09,1.31-.76,37.83,21.92,87.36-6.09,86.98-49.76.38-41.81-44.98-69.18-82.07-52.3-6.1,2.78-8.05,8.62-8.05,8.62ZM631.9,111.66c-20.83,2.75-37.56-18.08-26.97-37.15,5.59-10.52,17.96-14.02,29.14-12.75,14.85.38,23.6,13.43,30.35,24.91-6.97,12.21-16.74,25.7-32.52,24.99ZM770.94,89.73c-2.41,16.84-17.24,23.65-32.91,21.86-15.1-.42-23.36-13.28-30.33-24.92,6.99-11.62,15.14-24.4,30.2-24.91,18.43-2.23,34.73,8.04,33.04,27.97ZM876.14,112.93c-33.06-.41-33.07-52.16,0-52.58,14.7,0,26.66,11.79,26.66,26.29s-11.96,26.29-26.66,26.29Z"/>
      <circle class="cls-2" cx="939.52" cy="18.38" r="18"/>
      <g>
        <path class="cls-2" d="M107.51,116.71c-.87,1.35-2.11,3.23-2.8,4.13-.01.02-.03.04-.04.06C71.05,164.57.53,141.85,0,86.59.53,31.34,71.04,8.61,104.67,52.28c.01.02.03.04.04.06,1.09,1.44,2.12,2.94,3.07,4.48h0c.4.65.18,1.5-.48,1.89-5.7,3.29-18.94,10.93-24.49,14.14-.79.46-1.81.23-2.32-.53-9.49-15.6-30.22-15.43-41.06-2.58-8.8,9.11-8.8,24.6,0,33.71,10.86,12.86,31.57,13.02,41.06-2.58.5-.76,1.52-.99,2.32-.53l24.1,13.91c.86.5,1.14,1.62.6,2.46Z"/>
        <path class="cls-2" d="M157.02,1.75v140.47c0,.96-.78,1.75-1.75,1.75h-32.34c-.97,0-1.75-.79-1.75-1.75V1.75c0-.97.78-1.75,1.75-1.75h32.34c.96,0,1.75.78,1.75,1.75Z"/>
        <path class="cls-2" d="M285.99,86.64c0,31.61-26.08,57.33-58.13,57.33-77.12-3.16-77.1-111.51,0-114.65,32.05,0,58.13,25.72,58.13,57.33ZM253.2,86.64c0-13.78-11.37-24.99-25.34-24.99-33.62,1.38-33.61,48.61,0,49.99,13.97,0,25.34-11.21,25.34-24.99Z"/>
        <path class="cls-2" d="M394.44,33.46l-37.83,109.27c-.25.72-.91,1.2-1.65,1.2h-31.99c-.74,0-1.4-.48-1.65-1.2l-37.83-109.27c-.41-1.17.44-2.41,1.65-2.41h30.48c.74,0,1.4.48,1.65,1.2l21.7,62.66,21.7-62.66c.25-.72.9-1.2,1.64-1.2h30.49c1.21,0,2.05,1.23,1.64,2.41Z"/>
        <path class="cls-2" d="M506.86,86.64c0,3.16-.37,6.88-.94,10.18-.14.84-.87,1.46-1.73,1.46h-76.68c-1.36,0-2.2,1.49-1.5,2.66,8.96,15.73,31.91,17.59,43.04,2.74.4-.52,1.05-.78,1.7-.67l29.36,5.28c1.14.2,1.77,1.43,1.27,2.47-.66,1.38-1.49,3.08-1.98,3.94h.02c-1.25,2.13-2.79,4.51-4.25,6.43h-.03c-.79,1.04-1.65,2.07-2.49,3.04-1.88,2.11-3.92,4.15-6.09,5.98l-.66-.58.57.65c-3.02,2.56-6.21,4.71-9.65,6.61-3.44,1.87-6.99,3.36-10.68,4.52-6.72,2.06-13.89,2.94-20.89,2.5-1.71-.1-3.7-.3-5.3-.54h-.02s-.02,0-.04,0c-4.64-.71-9.2-1.96-13.5-3.74-.96-.39-1.91-.81-2.85-1.25l-.08-.04c-10.63-5.05-19.72-13.48-25.5-23.7l-.15-.28c-9.16-16.11-9.58-36.75-1.11-53.22,8.23-16.53,24.91-28.45,43.18-31.1.01,0,.03,0,.04,0,1.62-.24,3.61-.45,5.33-.54h.16c10.53-.63,21.2,1.65,30.52,6.54l-.36.79.45-.74c1.39.73,3.13,1.77,4.46,2.61,4.48,2.88,8.62,6.45,12.12,10.43l-.57.67.66-.56c1.08,1.26,2.15,2.55,3.13,3.89,1.27,1.68,2.49,3.68,3.58,5.49h-.02c4.91,8.56,7.47,18.29,7.47,28.09ZM472.61,72.1c-3.77-18.97-40.56-19.03-45.12-.03-.2,1.08.63,2.08,1.72,2.08h41.66c1.08,0,1.91-.98,1.73-2.05Z"/>
      </g>
    </g>
  </g>
</svg>