<?xml version="1.0" encoding="UTF-8"?>
<svg id="Layer_2" data-name="Layer 2" xmlns="http://www.w3.org/2000/svg" xmlns:xlink="http://www.w3.org/1999/xlink" viewBox="0 0 207 207">
  <defs>
    <style>
      .cls-1 {
        fill: url(#linear-gradient);
      }

      .cls-2 {
        fill: #283e4f;
      }
    </style>
    <linearGradient id="linear-gradient" x1="22.57" y1="103.5" x2="184.43" y2="103.5" gradientUnits="userSpaceOnUse">
      <stop offset="0" stop-color="#06f"/>
      <stop offset="1" stop-color="#00aeff"/>
    </linearGradient>
  </defs>
  <g id="Layer_1-2" data-name="Layer 1">
    <g>
      <rect class="cls-2" x="0" y="0" width="207" height="207" rx="44.36" ry="44.36"/>
      <path class="cls-1" d="M184.4,102.32c-.28-13.59-8.3-26.47-20.12-33.08,0,0,0,0,0,0-4.7-2.68-10.02-4.4-15.44-5-.98-.1-1.99-.18-2.99-.21h0c-16.05-1.24-32.33,4.27-42.49,16.95-9.92-14.14-25.78-18.21-42.33-16.96h0c-39.87,1.71-53.24,53.65-18.44,73.74,0,0,0,0,0,0,5.51,3.15,11.98,4.99,18.43,5.21h0c16.54,1.26,32.44-2.81,42.33-16.96,10.17,12.69,26.44,18.2,42.49,16.97h0c6.47-.23,12.9-2.07,18.43-5.22,0,0,0,0,0,0,12.54-6.99,20.7-21.04,20.12-35.44ZM65.86,120.72c-14.35,1.9-25.88-12.46-18.59-25.6,3.85-7.25,12.37-9.66,20.08-8.79,10.24.26,16.27,9.25,20.92,17.17-4.8,8.41-11.54,17.71-22.41,17.22ZM161.68,105.61c-1.66,11.61-11.88,16.3-22.68,15.06-10.41-.29-16.1-9.15-20.9-17.17,4.81-8.01,10.43-16.82,20.81-17.17,12.7-1.53,23.93,5.54,22.77,19.28Z"/>
    </g>
  </g>
</svg>